<svg xmlns="http://www.w3.org/2000/svg" viewBox="0 0 587 526.11"><defs><style>.cls-1{fill:#393a3c;}</style></defs><g id="object"><path class="cls-1" d="M565.8,241.72a1.6,1.6,0,0,1,1.12-.9,3.41,3.41,0,0,1,2.22.28,5.77,5.77,0,0,1,2.5,2.35,7.21,7.21,0,0,1,.93,4.08,8.46,8.46,0,0,1-.62,2.62A10.35,10.35,0,0,1,570.2,253a12,12,0,0,1-2.75,2.36,13.34,13.34,0,0,1-3.21,1.46,15.34,15.34,0,0,1-3.09.54c-.48,0-.93,0-1.36,0s-.81-.05-1.17-.09l-1-.17a5.83,5.83,0,0,1-.72-.21c-.39-.13-.6-.26-.6-.37s.21-.22.57-.37l1.5-.6c.3-.12.62-.27,1-.42s.69-.33,1-.52a15.77,15.77,0,0,0,2.08-1.36,11,11,0,0,0,1.73-1.75,8.14,8.14,0,0,0,1.09-1.84,5.87,5.87,0,0,0,.45-1.57c0-.11,0-.21,0-.31s0-.19,0-.27a1.79,1.79,0,0,1,0-.24v-.2c0-.48.06-.87.08-1.26a8.22,8.22,0,0,0,0-1.29C565.8,243.64,565.43,242.58,565.8,241.72Z"/><path class="cls-1" d="M573.66,256.23c-5.89,2.63-14.18,3.38-15.27,3.47-.07,0-.12,0-.12.09l-2.86,2.56a.83.83,0,0,0,0,1.26l2.89,2.53c0,.05.05.09.12.09a54.48,54.48,0,0,1,15.31,3.3s9.41-5.29,11.37-6.48a.26.26,0,0,0,0-.47C583.13,261.41,573.71,256.2,573.66,256.23Z"/><path class="cls-1" d="M566,284.46a1.63,1.63,0,0,0,1.12.89,3.44,3.44,0,0,0,2.22-.31,5.77,5.77,0,0,0,2.48-2.38,7.24,7.24,0,0,0,.88-4.09,8.22,8.22,0,0,0-.64-2.61,10.67,10.67,0,0,0-1.79-2.87,12.16,12.16,0,0,0-2.77-2.33,13.48,13.48,0,0,0-3.23-1.42,15.27,15.27,0,0,0-3.1-.51h-1.35c-.43,0-.82.06-1.17.11l-1,.18a5.06,5.06,0,0,0-.71.22c-.39.14-.6.26-.6.37s.22.22.58.37l1.5.58,1,.41c.34.15.69.32,1,.5a17,17,0,0,1,2.1,1.35,11.42,11.42,0,0,1,1.75,1.72,8.21,8.21,0,0,1,1.11,1.83A6.48,6.48,0,0,1,566,278c0,.11,0,.22,0,.32a1.23,1.23,0,0,1,0,.27l0,.24a1.2,1.2,0,0,0,0,.19c0,.49.07.88.09,1.27a7,7,0,0,1,0,1.28C566,282.54,565.66,283.6,566,284.46Z"/><path class="cls-1" d="M526.12,263.14l6.68,3.11,0,0a37,37,0,0,1,6.39-3l.42-.12-.42-.12s-4.7-1.69-6.42-3l0,0Z"/><path class="cls-1" d="M551.82,92a11.36,11.36,0,0,1,2.72-.61,14,14,0,0,1,3.35,0,16,16,0,0,1,7.43,3.22,31.47,31.47,0,0,1,6.79,7.33,58.28,58.28,0,0,1,5.36,9.77,69.48,69.48,0,0,1,3.67,10.93A79.07,79.07,0,0,1,583,133.84a100.68,100.68,0,0,1-.18,19.59c-.42,2.7-1,5.72-1.74,8.95s-1.69,6.64-2.8,10.16a155.73,155.73,0,0,1-8.59,21.38c-1.7,3.47-3.51,6.84-5.35,10L563,206.27c-.45.75-.93,1.49-1.41,2.22l-2.8,4.29c-3.63,5.55-6.6,10.38-8.52,13.77a123.53,123.53,0,0,0-6.69,13.38A49.3,49.3,0,0,0,540,251.82a19,19,0,0,0-.08,4.91,10.71,10.71,0,0,0,.45,2,7.93,7.93,0,0,0,.73,1.6,5.39,5.39,0,0,0,1.64,1.77c.48.28.77.35.84.25s-.64-1-1.19-2.62-.61-4.28.16-7.47a58.86,58.86,0,0,1,4.06-11c1.88-4,4.21-8.41,6.79-12.93,1.89-3.33,4.73-8.15,8.21-13.75l2.7-4.38c.46-.76.94-1.53,1.4-2.35l1.34-2.43c1.78-3.28,3.51-6.77,5.12-10.36a150,150,0,0,0,7.92-22c1-3.61,1.77-7.12,2.39-10.41s1-6.37,1.32-9.11a96.77,96.77,0,0,0,1.08-19.87,78.16,78.16,0,0,0-1.49-11.53A68.84,68.84,0,0,0,580,110.7a59,59,0,0,0-5.32-10.45,38.53,38.53,0,0,0-3.38-4.52A27.83,27.83,0,0,0,567.39,92a19.15,19.15,0,0,0-9-4.08,17.45,17.45,0,0,0-4.24-.11,15.41,15.41,0,0,0-3.54.77,16.13,16.13,0,0,0-7,4.81,17,17,0,0,0-2.24,3.36,17.6,17.6,0,0,0-1.35,3.61,14.68,14.68,0,0,0-.48,3.7,11.94,11.94,0,0,0,.58,3.55A9.71,9.71,0,0,0,544,112.7a7.55,7.55,0,0,0,2.67,1.11,5.25,5.25,0,0,0,2.73-.14,3.61,3.61,0,0,0,1.94-1.56,3.85,3.85,0,0,0,.42-1l.09-.46a2.18,2.18,0,0,0,0-.43,6,6,0,0,0-.11-1.42,6.15,6.15,0,0,0-.3-1c-.22-.49-.4-.72-.52-.69s-.19.32-.2.82c0,.25,0,.55-.06.9a6.31,6.31,0,0,1-.22,1.12,1,1,0,0,1-.1.29l-.12.3a2.49,2.49,0,0,1-.35.5,1.87,1.87,0,0,1-1.1.6,4.42,4.42,0,0,1-3.33-1.12,7.29,7.29,0,0,1-2.47-3.9,9,9,0,0,1-.26-2.63,12.29,12.29,0,0,1,.5-2.85,15.55,15.55,0,0,1,1.2-2.88,14.21,14.21,0,0,1,1.85-2.63A13.06,13.06,0,0,1,551.82,92Z"/><path class="cls-1" d="M583.51,155.39s.4,1.58,1.07,4.45c.14.73.29,1.53.46,2.41s.36,1.84.49,2.89.29,2.16.46,3.34.21,2.45.32,3.77c0,.16,0,.33,0,.5s0,.33,0,.5c0,.34,0,.69,0,1,0,.7,0,1.41.07,2.14s0,1.47,0,2.22,0,1.53-.05,2.32c0,.39,0,.79-.07,1.18s-.07.8-.1,1.21c-.07.81-.12,1.63-.21,2.47s-.24,1.67-.36,2.53l-.18,1.29c-.06.44-.16.87-.25,1.3-.17.87-.35,1.75-.54,2.65-.08.44-.2.88-.32,1.33l-.36,1.34c-.12.45-.25.9-.37,1.36l-.19.68-.22.68q-.47,1.35-.93,2.73l-.23.69-.28.67c-.18.46-.37.91-.56,1.37l-.56,1.37-.29.69-.33.68c-.43.9-.88,1.8-1.32,2.72-.12.22-.22.45-.34.68l-.38.66-.76,1.34-.76,1.34-.38.66-.42.63L574,217.74l-.41.63-.44.59-.88,1.19c-.59.78-1.17,1.58-1.76,2.33-2.39,3-4.77,5.73-7,8.38s-4.22,5.2-6,7.66a64,64,0,0,0-4.47,7.12,37.08,37.08,0,0,0-4,11.47c-.22,1.44-.32,2.57-.36,3.34s-.05,1.18-.05,1.18,0-.41-.13-1.18a28.35,28.35,0,0,1-.11-3.4,31.86,31.86,0,0,1,.65-5.39c.21-1,.5-2.15.85-3.31s.78-2.36,1.3-3.6a58.69,58.69,0,0,1,4-7.8c1.62-2.69,3.52-5.45,5.6-8.27s4.33-5.68,6.57-8.66c.56-.74,1.08-1.51,1.62-2.27.28-.38.55-.76.82-1.15l.41-.58.39-.6,1.54-2.41.39-.61c.13-.21.24-.42.36-.63l.72-1.27.72-1.26.36-.63c.12-.21.22-.43.33-.64l1.28-2.56.32-.64.29-.64c.18-.43.37-.86.56-1.29l.56-1.28.28-.63.24-.65,1-2.55.24-.63.2-.64.41-1.27c.13-.42.26-.84.4-1.26s.27-.83.37-1.25c.22-.84.43-1.67.64-2.49a85.7,85.7,0,0,0,2.44-17.91c0-1.3,0-2.53.06-3.71s0-2.28-.07-3.31-.09-2-.14-2.89-.1-1.7-.14-2.44Z"/><path class="cls-1" d="M552.13,438.15a14.94,14.94,0,0,0,3.55.73,17,17,0,0,0,4.23-.16,19,19,0,0,0,8.94-4.18,27.83,27.83,0,0,0,3.87-3.81,38.38,38.38,0,0,0,3.33-4.56,58.66,58.66,0,0,0,5.2-10.5,69,69,0,0,0,3.28-11.51,79.07,79.07,0,0,0,1.35-11.54,96.52,96.52,0,0,0-1.3-19.85c-.32-2.74-.78-5.81-1.42-9.09s-1.49-6.78-2.5-10.38a150.77,150.77,0,0,0-8.16-21.92c-1.65-3.58-3.41-7-5.23-10.31l-1.37-2.41c-.47-.82-.95-1.59-1.42-2.34-1-1.49-1.86-2.95-2.75-4.34-3.54-5.57-6.44-10.36-8.36-13.67-2.63-4.49-5-8.82-6.93-12.85a59.46,59.46,0,0,1-4.19-10.95c-.8-3.18-.81-5.82-.24-7.46s1.35-2.41,1.16-2.64-.36,0-.83.26a5.38,5.38,0,0,0-1.62,1.79,8,8,0,0,0-.72,1.61,10.75,10.75,0,0,0-.42,2,18.67,18.67,0,0,0,.13,4.91,49.24,49.24,0,0,0,3.66,11.85,124.21,124.21,0,0,0,6.84,13.31c2,3.36,5,8.16,8.67,13.67l2.85,4.26c.48.73,1,1.47,1.43,2.21s.93,1.54,1.41,2.32c1.87,3.15,3.71,6.5,5.45,9.95a157,157,0,0,1,8.82,21.28c1.15,3.51,2.11,6.93,2.91,10.14s1.38,6.23,1.84,8.92a100.61,100.61,0,0,1,.4,19.59,80.34,80.34,0,0,1-1.75,11.17,69.48,69.48,0,0,1-3.54,11,58.51,58.51,0,0,1-5.25,9.83,31.36,31.36,0,0,1-6.7,7.4,15.92,15.92,0,0,1-7.39,3.31,13.66,13.66,0,0,1-3.36.08,11.52,11.52,0,0,1-2.72-.58,13,13,0,0,1-5.55-3.64,14.38,14.38,0,0,1-1.88-2.61,16.23,16.23,0,0,1-1.23-2.86,13,13,0,0,1-.54-2.85,9.41,9.41,0,0,1,.24-2.63,7.21,7.21,0,0,1,2.43-3.93,4.39,4.39,0,0,1,3.31-1.15,1.82,1.82,0,0,1,1.1.58,2.59,2.59,0,0,1,.37.5l.12.29a1.66,1.66,0,0,1,.1.29,7.82,7.82,0,0,1,.23,1.13c0,.34.06.65.07.9,0,.49.09.78.21.81s.3-.2.52-.69a8.85,8.85,0,0,0,.29-1,6.21,6.21,0,0,0,.09-1.43,1.65,1.65,0,0,0-.06-.43l-.09-.46a3.9,3.9,0,0,0-.43-1,3.65,3.65,0,0,0-2-1.53,5.25,5.25,0,0,0-2.73-.11,7.58,7.58,0,0,0-2.66,1.14,9.67,9.67,0,0,0-3.82,5.17,12,12,0,0,0-.54,3.56,15.07,15.07,0,0,0,.52,3.69,17.47,17.47,0,0,0,1.39,3.6,17,17,0,0,0,2.28,3.33A16.12,16.12,0,0,0,552.13,438.15Z"/><path class="cls-1" d="M584.27,370.94l.36-4.55q.06-1.09.12-2.43c0-.89.11-1.86.1-2.89s0-2.15,0-3.32-.07-2.41-.11-3.71a85.28,85.28,0,0,0-2.63-17.88c-.22-.82-.45-1.64-.68-2.48-.1-.42-.24-.83-.38-1.25l-.42-1.25c-.13-.42-.27-.84-.41-1.27l-.21-.63-.25-.63q-.48-1.26-1-2.55l-.25-.64-.28-.63-.58-1.27-.57-1.28-.29-.64-.33-.63-1.32-2.55c-.11-.21-.21-.43-.33-.64l-.37-.62-.73-1.26c-.25-.42-.49-.84-.73-1.26-.13-.2-.24-.42-.37-.62l-.4-.6-1.57-2.41-.39-.59-.42-.57c-.27-.39-.55-.77-.83-1.14-.55-.76-1.08-1.52-1.64-2.26-2.28-2.95-4.57-5.79-6.68-8.58s-4-5.53-5.68-8.21a57.09,57.09,0,0,1-4.06-7.76c-.53-1.23-1-2.44-1.34-3.58s-.67-2.25-.89-3.3a31.53,31.53,0,0,1-.71-5.38,28.15,28.15,0,0,1,.07-3.41c.08-.77.12-1.17.12-1.17l.06,1.17a33.48,33.48,0,0,0,.4,3.34A37.32,37.32,0,0,0,552.88,281a62.55,62.55,0,0,0,4.55,7.07c1.79,2.45,3.84,5,6.07,7.59s4.63,5.35,7,8.31c.6.74,1.19,1.53,1.79,2.31l.89,1.18.45.59.42.62,1.69,2.51.42.63c.14.21.26.44.39.66l.78,1.32.77,1.33.39.66.34.68,1.36,2.71.33.67.3.69.58,1.36.57,1.36.29.67.24.69c.32.92.64,1.82,1,2.72l.24.67.19.68.39,1.36.37,1.33c.13.45.25.89.34,1.33q.29,1.33.57,2.64c.09.44.2.87.26,1.3s.13.86.2,1.29c.13.85.26,1.7.38,2.53s.16,1.65.24,2.46c0,.41.08.81.11,1.21s.08.79.09,1.18c0,.79,0,1.56.08,2.32s.07,1.49,0,2.22,0,1.44,0,2.14c0,.34,0,.69,0,1l0,.5,0,.5c-.1,1.32-.2,2.58-.29,3.78s-.29,2.3-.42,3.34-.3,2-.46,2.89-.3,1.69-.43,2.42C584.65,369.36,584.27,370.94,584.27,370.94Z"/><path class="cls-1" d="M183.07,62.46l2.83,0c1.83,0,4.47,0,7.73-.06,6.52-.14,15.49-.78,25.32-.92,2.46-.08,4.85,0,7.17,0s4.49.17,6.61.4a110.84,110.84,0,0,1,11.16,1.78c1.57.34,3,.7,4.24,1s2.31.64,3.18.91l2.67.91-2.51-1.32c-.82-.4-1.85-.83-3.05-1.36s-2.6-1-4.16-1.52a76.3,76.3,0,0,0-11.21-2.79,55.74,55.74,0,0,0-6.83-.75c-2.36-.08-4.81-.2-7.31-.12A207.18,207.18,0,0,0,193.51,61Z"/><path class="cls-1" d="M104.46,12.23a22.21,22.21,0,0,1,3.63-4.95,23.66,23.66,0,0,1,4.2-3.39,25.76,25.76,0,0,1,4.41-2.24l1.14-.42a5.8,5.8,0,0,1,.59-.19l.6-.18c.4-.13.8-.21,1.2-.3l.61-.14.6-.1A25.3,25.3,0,0,1,126.25,0a32.13,32.13,0,0,1,4.64.5,35.44,35.44,0,0,1,8.54,2.77,34,34,0,0,1,3.81,2.07c.62.37,1.2.78,1.79,1.18.29.2.57.42.85.63s.57.42.83.65l.81.67.78.7.38.36.37.36.73.74.69.76.34.39.32.39.64.8.59.83c.2.27.38.55.56.84s.36.56.53.85c.32.59.66,1.15.93,1.76a22.76,22.76,0,0,1,1.36,3.66l.21.94.11.47.07.47c.05.32.09.63.14.94s0,.63.07,1l0,.46v.47c0,.31,0,.62,0,.93s0,.62-.08.92l-.05.45c0,.16-.05.3-.07.45s-.11.6-.16.89-.16.58-.23.87l-.12.43-.14.41-.3.83c-.11.26-.23.52-.35.79s-.11.26-.18.38l-.2.38-.41.74-.45.69-.23.35-.25.32-.5.64-.53.6-.27.29-.28.27-.57.53c-.19.18-.39.33-.59.49a13,13,0,0,1-1.21.89,14.77,14.77,0,0,1-5.09,2.13,13.7,13.7,0,0,1-4.78.19,13,13,0,0,1-3.81-1.12l-.4-.19-.37-.2-.71-.4c-.43-.3-.83-.57-1.19-.84l-.94-.81-.29-.3a5.45,5.45,0,1,1,2.75.5l.36.18.68.28.35.14c.12.05.25.08.37.12a11.94,11.94,0,0,0,3.4.65,12.49,12.49,0,0,0,4-.47A12.86,12.86,0,0,0,147.66,37c.32-.26.66-.5,1-.79s.32-.28.47-.43.29-.31.44-.47l.22-.23.21-.26.41-.5.38-.55.19-.27.18-.29.34-.59.3-.61.16-.31.12-.33.26-.65.21-.67.11-.34.07-.35c.05-.23.11-.47.16-.7s.06-.48.1-.72,0-.24.05-.37l0-.36c0-.25,0-.5,0-.74s0-.5,0-.76,0-.25,0-.37l0-.38-.08-.76-.15-.77-.07-.38-.1-.38c-.06-.26-.13-.52-.2-.77a22.56,22.56,0,0,0-8.08-11c-.24-.2-.49-.38-.75-.56s-.5-.38-.76-.55c-.53-.35-1.06-.7-1.61-1a31.9,31.9,0,0,0-3.43-1.8,32.66,32.66,0,0,0-7.59-2.36,27.09,27.09,0,0,0-4-.39,20,20,0,0,0-4,.28l-.5.08-.49.11c-.32.08-.65.14-1,.25L119.7,5c-.16.05-.32.09-.49.16l-1,.36a22.56,22.56,0,0,0-3.7,1.88,20.18,20.18,0,0,0-3.46,2.78,18,18,0,0,0-3,4,20,20,0,0,0-2,5.23c-.12.48-.18,1-.27,1.47s-.12,1-.19,1.52a25.53,25.53,0,0,0,0,3.16,26.56,26.56,0,0,0,.37,3.28,28.77,28.77,0,0,0,.83,3.32,27.67,27.67,0,0,0,1.27,3.3c.27.54.51,1.09.81,1.62.15.26.29.54.45.8l.48.78c.15.27.33.52.5.78s.35.51.53.77q.58.77,1.17,1.56c.2.26.39.53.6.78l.63.76.63.76c.21.26.42.52.65.76l1.34,1.47c.46.49,1,.95,1.43,1.42s1,.92,1.49,1.37l.77.68c.25.22.53.42.8.63l.81.64c.27.21.54.42.83.61l1.71,1.19L125.54,54c.3.19.61.35.92.52l.94.51a66.3,66.3,0,0,0,7.94,3.52c.69.27,1.4.49,2.1.75l1.05.36,1.07.35,2.15.68,2.17.65c.73.22,1.46.43,2.2.63l2.2.61,2.2.55,1.1.27c.37.09.75.16,1.12.23l2.23.46c.75.15,1.5.26,2.26.38,1.5.28,3,.44,4.54.65.76.1,1.53.16,2.29.24s1.52.17,2.29.21c1.53.11,3.07.23,4.6.29,3.07.16,6.15.19,9.22.21s6.12-.05,9.15-.13,6.05-.17,9-.26,6-.16,8.85-.22c5.81-.15,11.48-.37,16.93-.31,2.72,0,5.39.15,8,.34s5.11.51,7.54.91a52.72,52.72,0,0,1,13.14,4A29.82,29.82,0,0,1,258,73.47a14.37,14.37,0,0,1,3.75,4,8.68,8.68,0,0,1,1,2.32,8.13,8.13,0,0,1,.23,2.32c0,.19,0,.37-.05.56a4.85,4.85,0,0,1-.08.53,7.85,7.85,0,0,1-.25,1,7.68,7.68,0,0,1-.85,1.75,6.72,6.72,0,0,1-2.3,2.25,3.92,3.92,0,0,1-2.29.57,3.37,3.37,0,0,1-1.39-.44,1.67,1.67,0,0,1-.31-.2c-.07-.05-.1-.08-.09-.08a2.86,2.86,0,0,1,.44.2,3.52,3.52,0,0,0,3.47-.33,6.69,6.69,0,0,0,2.08-2.22,7.57,7.57,0,0,0,.72-1.66,5.5,5.5,0,0,0,.2-1c0-.16.06-.33.07-.5l0-.51a7.47,7.47,0,0,0-.29-2.12,8,8,0,0,0-1-2.1,13.76,13.76,0,0,0-3.65-3.65,29.14,29.14,0,0,0-5.13-2.84,51.5,51.5,0,0,0-12.91-3.59c-2.39-.34-4.87-.6-7.42-.73s-5.19-.19-7.89-.15c-5.39,0-11,.39-16.85.65-2.92.13-5.85.26-8.83.41s-6,.3-9,.43-6.13.23-9.22.3-6.22.06-9.35-.05c-1.56,0-3.13-.13-4.69-.21-.79,0-1.57-.11-2.35-.17s-1.57-.11-2.35-.21c-1.57-.18-3.13-.33-4.69-.58-.78-.12-1.56-.22-2.33-.36l-2.32-.43-1.16-.22-1.15-.27-2.29-.53-2.25-.59c-.74-.19-1.49-.39-2.23-.6l-2.23-.62-2.21-.67-1.1-.33-1.09-.37c-.73-.25-1.46-.47-2.18-.74a67.34,67.34,0,0,1-8.42-3.58l-1-.53c-.34-.17-.68-.34-1-.54l-2-1.16-1.87-1.25c-.32-.2-.61-.43-.91-.66l-.89-.67c-.29-.23-.6-.44-.88-.69l-.84-.71c-.56-.48-1.12-.95-1.64-1.47s-1.06-1-1.56-1.51l-1.47-1.57c-.25-.26-.48-.53-.7-.8l-.69-.8-.68-.81c-.22-.26-.42-.54-.64-.82l-1.26-1.63c-.21-.28-.41-.58-.61-.86s-.4-.58-.59-.88l-.55-.88c-.18-.3-.35-.61-.52-.91-.35-.59-.64-1.22-.94-1.83a29.91,29.91,0,0,1-1.5-3.75,33.22,33.22,0,0,1-1-3.8,29.45,29.45,0,0,1-.46-3.79A25.24,25.24,0,0,1,104.46,12.23Z"/><path class="cls-1" d="M218.2,44.28a1.26,1.26,0,0,0-1,.42,2.78,2.78,0,0,0-.72,1.38,6.09,6.09,0,0,0,.95,4.63,10.09,10.09,0,0,0,2.81,2.77,19.27,19.27,0,0,0,4.28,2.2,29,29,0,0,0,3.84,1.15c1,.22,1.7.31,1.77.16s-.39-.62-1.16-1.32l-2.91-2.57a27.54,27.54,0,0,1-2.84-2.94,17,17,0,0,1-1.5-2.2c-.57-.91-1.14-1.65-1.67-2.36A2.84,2.84,0,0,0,218.2,44.28Z"/><path class="cls-1" d="M232.67,45.57c-.53-.19-1.23.15-1.76,1.06a5.05,5.05,0,0,0-.26,3.93,8.61,8.61,0,0,0,1.64,2.85,16.16,16.16,0,0,0,3,2.71c2.1,1.5,4,2.47,4.21,2.29s-1.11-2-2.41-4a21.9,21.9,0,0,1-1.63-3,13.75,13.75,0,0,1-.72-2.1c-.26-.86-.55-1.58-.82-2.26A2.35,2.35,0,0,0,232.67,45.57Z"/><path class="cls-1" d="M199.65,42.56a1.38,1.38,0,0,0-1.05.54,3.41,3.41,0,0,0-.42.66,2.85,2.85,0,0,0-.27.91,6.74,6.74,0,0,0,1.41,5,11.42,11.42,0,0,0,3.32,2.84,21.94,21.94,0,0,0,4.9,2.08,31.77,31.77,0,0,0,4.32,1c1.15.17,1.9.21,2,0s-.49-.66-1.39-1.37l-3.4-2.6a28.43,28.43,0,0,1-3.37-3,19.25,19.25,0,0,1-1.84-2.3c-.7-1-1.38-1.74-2-2.48A3.17,3.17,0,0,0,199.65,42.56Z"/><path class="cls-1" d="M309.52,42.79a31.59,31.59,0,0,0-3.26-8.1A38.82,38.82,0,0,0,304,31.14c-.42-.55-.86-1.08-1.28-1.62A19.43,19.43,0,0,0,301.4,28a36.43,36.43,0,0,0-5.88-5.22l-1.58-1.08-1.62-1-.81-.47-.83-.4-1.66-.8-1.69-.66-.84-.32-.86-.25-1.69-.5L282.23,17l-.85-.18-.85-.1-1.68-.18c-.56-.05-1.11-.06-1.66-.08h-1.62a33.94,33.94,0,0,0-6.16.72A26.68,26.68,0,0,0,263.86,19,16.88,16.88,0,0,0,259.32,22a11.18,11.18,0,0,0-2.76,4.24c-.13.39-.26.76-.38,1.14s-.17.74-.24,1.11a18.34,18.34,0,0,0-.22,2.17,11.9,11.9,0,0,0,1.79,7.17,6.14,6.14,0,0,0,2.24,2,6,6,0,0,0,2.39.6,7.91,7.91,0,0,0,1.92-.16,4,4,0,0,0,1.88.47,4,4,0,1,0-2.2-.65,8.27,8.27,0,0,1-1.57,0,5.27,5.27,0,0,1-4-2.68A11,11,0,0,1,257,30.77a10.69,10.69,0,0,1,3.61-7.32,14.85,14.85,0,0,1,4.12-2.39,25.24,25.24,0,0,1,5.12-1.28,32.12,32.12,0,0,1,5.69-.3l1.48.08c.49.05,1,.09,1.48.16L280,20l.75.13.74.2,1.49.4,1.48.53.75.27.72.33,1.47.67,1.43.79.72.4.7.46,1.39.92,1.34,1A32.13,32.13,0,0,1,297.94,31a13.67,13.67,0,0,1,1.1,1.41c.34.48.7,1,1,1.46A32.56,32.56,0,0,1,301.87,37,26.66,26.66,0,0,1,304.29,44a23.41,23.41,0,0,1,.37,7.47,24.63,24.63,0,0,1-6.76,13.88,52.5,52.5,0,0,1-14,10.38,89.25,89.25,0,0,1-8.44,3.92c-.73.29-1.47.59-2.21.85l-2.24.76c-.75.25-1.49.54-2.25.76l-2.3.64a96.24,96.24,0,0,1-19.38,3.17c-13.42.88-27.53-.52-41.85-3-3.59-.63-7.13-1.3-10.7-2L183.87,78.7l-10.51-2L163,74.71c-13.75-2.5-27.13-4.54-40-5.78l-4.78-.48-4.75-.31c-3.14-.19-6.24-.44-9.29-.54Q95,67.26,86.4,67.42a197.37,197.37,0,0,0-31.84,3A111.91,111.91,0,0,0,29.23,78a72.59,72.59,0,0,0-9.59,5.09c-1.44.84-2.71,1.82-4,2.67-.61.46-1.19.93-1.76,1.37s-1.13.87-1.63,1.34a54,54,0,0,0-5.2,5.06c-.68.79-1.33,1.5-1.88,2.2s-1,1.34-1.45,1.91S3,98.75,2.68,99.21l-.74,1.14c-.4.61-.6.93-.6.93L2,100.4l.83-1.07c.33-.43.71-.93,1.19-1.45l1.58-1.77c.6-.64,1.3-1.29,2-2a57,57,0,0,1,5.45-4.58c.52-.42,1.11-.78,1.69-1.18s1.18-.81,1.8-1.21c1.28-.74,2.58-1.61,4-2.33a73.29,73.29,0,0,1,9.62-4.32,113.32,113.32,0,0,1,25-5.89c1.16-.15,2.33-.29,3.52-.42a77.72,77.72,0,0,1,17.45,2.43,125.32,125.32,0,0,1,16,5.18c5.64,2.2,11.57,4.88,17.77,7.84s12.7,6.21,19.66,9.39c1.74.78,3.56,1.5,5.37,2.26l2.73,1.13,1.38.57,1.41.49,5.71,2,1.44.49c.48.17,1,.29,1.47.43l3,.82,3,.82,1.47.4c.5.12,1,.22,1.49.32l5.92,1.24,1.47.3,1.48.22,2.94.43,2.91.41,1.45.2,1.45.12,5.75.46,1.41.1,1.42,0,2.81.05,2.77,0c.92,0,1.84,0,2.75,0l5.39-.25c.88-.06,1.76-.06,2.63-.16l2.6-.28,5.08-.55c1.66-.23,3.28-.53,4.89-.8l2.38-.4c.79-.14,1.57-.25,2.33-.44l4.51-1c1.47-.35,2.93-.63,4.32-1.06l4.1-1.18,2-.58,1-.28.94-.32,7.15-2.48,6.25-2.53c2-.75,3.71-1.61,5.35-2.36l4.44-2.07c5.25-2.7,8.1-4.25,8.1-4.25l-8.6,3-4.64,1.47c-1.7.53-3.52,1.16-5.53,1.67l-6.39,1.77-7.22,1.69a170.93,170.93,0,0,1-35.9,4.06l-5.13,0c-.87,0-1.74,0-2.61-.1l-2.63-.16-2.66-.16-1.34-.08-1.34-.15-5.42-.62-1.37-.15-1.36-.23-2.75-.46-2.77-.46-1.39-.23-1.39-.31-5.58-1.24c-.47-.11-.94-.2-1.41-.32l-1.4-.39-2.8-.78-2.81-.77c-.46-.13-.93-.24-1.39-.39l-1.37-.46-5.44-1.81L142,95.21l-1.32-.52-2.63-1c-1.74-.69-3.48-1.32-5.2-2-6.86-2.88-13.53-5.86-20-8.5s-12.74-5-18.76-6.79a121.69,121.69,0,0,0-13.27-3.26c1.86,0,3.73,0,5.63.06q8.43.21,17.43.89c3,.2,6,.56,9.08.85l4.63.46,4.68.61c12.56,1.61,25.68,3.93,39.27,6.63l20.74,4.24L192.87,89c3.58.73,7.24,1.43,10.92,2.07,14.71,2.54,29.51,3.91,43.87,2.73A101,101,0,0,0,268.55,90l2.5-.76c.83-.28,1.64-.6,2.45-.9l2.43-.91c.8-.3,1.57-.64,2.35-1a90.48,90.48,0,0,0,9-4.51,57.85,57.85,0,0,0,15.43-12.32A34.14,34.14,0,0,0,308,61.32,27.92,27.92,0,0,0,310.37,52,28.71,28.71,0,0,0,309.52,42.79Z"/><path class="cls-1" d="M401.24,62.46l-2.83,0c-1.83,0-4.47,0-7.73-.06-6.52-.14-15.49-.78-25.32-.92-2.46-.08-4.85,0-7.17,0s-4.49.17-6.6.4a110.37,110.37,0,0,0-11.16,1.78c-1.58.34-3,.7-4.25,1s-2.31.64-3.17.91l-2.68.91,2.51-1.32c.83-.4,1.86-.83,3.05-1.36s2.6-1,4.16-1.52a77,77,0,0,1,11.21-2.79,56,56,0,0,1,6.83-.75c2.36-.08,4.81-.2,7.31-.12A206.79,206.79,0,0,1,390.8,61Z"/><path class="cls-1" d="M479.86,12.23a22.25,22.25,0,0,0-3.64-4.95A23.66,23.66,0,0,0,472,3.89a25.76,25.76,0,0,0-4.41-2.24l-1.14-.42a5.09,5.09,0,0,0-.59-.19l-.6-.18c-.39-.13-.8-.21-1.2-.3l-.6-.14-.61-.1A25.25,25.25,0,0,0,458.06,0a32.28,32.28,0,0,0-4.64.5,35.37,35.37,0,0,0-8.53,2.77,33.32,33.32,0,0,0-3.82,2.07c-.62.37-1.2.78-1.78,1.18-.3.2-.57.42-.86.63s-.56.42-.83.65l-.81.67-.77.7-.39.36-.37.36-.73.74-.69.76-.34.39-.32.39-.63.8-.6.83c-.2.27-.38.55-.56.84s-.36.56-.53.85c-.31.59-.66,1.15-.92,1.76a21,21,0,0,0-1.36,3.66c-.07.32-.15.63-.22.94l-.1.47-.08.47c0,.32-.09.63-.13.94s-.05.63-.07,1l0,.46c0,.16,0,.32,0,.47,0,.31,0,.62,0,.93s.06.62.09.92l0,.45c0,.16.05.3.08.45s.1.6.16.89.15.58.22.87l.12.43.15.41c.09.28.19.55.29.83s.24.52.35.79l.18.38.2.38.41.74.46.69c.07.12.15.23.23.35l.25.32.49.64.54.6.26.29.29.27.56.53c.19.18.4.33.59.49.39.33.81.61,1.21.89a14.85,14.85,0,0,0,5.09,2.13,13.71,13.71,0,0,0,4.78.19,13,13,0,0,0,3.81-1.12l.4-.19.37-.2.71-.4c.43-.3.83-.57,1.19-.84l.94-.81.29-.3a5.46,5.46,0,1,0-2.74.5l-.37.18-.67.28-.35.14-.38.12a11.94,11.94,0,0,1-3.39.65,12.43,12.43,0,0,1-4-.47A12.9,12.9,0,0,1,436.65,37c-.32-.26-.66-.5-1-.79l-.46-.43-.45-.47-.22-.23-.2-.26-.42-.5-.38-.55-.19-.27c-.06-.1-.11-.2-.17-.29l-.35-.59-.3-.61-.15-.31c0-.11-.09-.22-.13-.33l-.26-.65L431.8,30l-.1-.34-.08-.35-.15-.7c0-.24-.07-.48-.1-.72s0-.24-.05-.37l0-.36c0-.25,0-.5,0-.74s0-.5,0-.76,0-.25,0-.37l0-.38.08-.76c0-.26.09-.51.14-.77l.07-.38.1-.38c.07-.26.14-.52.2-.77a22.68,22.68,0,0,1,8.08-11c.24-.2.5-.38.75-.56s.51-.38.77-.55c.53-.35,1.05-.7,1.6-1a31.13,31.13,0,0,1,3.44-1.8,32.37,32.37,0,0,1,7.59-2.36,27,27,0,0,1,4-.39,20,20,0,0,1,4,.28l.49.08.49.11a9.83,9.83,0,0,1,1,.25l.48.14a4.5,4.5,0,0,1,.48.16l1,.36a23.07,23.07,0,0,1,3.71,1.88,20.52,20.52,0,0,1,3.45,2.78,18,18,0,0,1,3,4,20,20,0,0,1,2,5.23c.12.48.19,1,.28,1.47s.12,1,.18,1.52a25.53,25.53,0,0,1,0,3.16,26.56,26.56,0,0,1-.37,3.28,26.85,26.85,0,0,1-.83,3.32,26.06,26.06,0,0,1-1.27,3.3c-.26.54-.51,1.09-.81,1.62-.15.26-.29.54-.44.8l-.48.78c-.16.27-.33.52-.51.78s-.34.51-.53.77q-.59.77-1.17,1.56c-.2.26-.39.53-.6.78s-.42.5-.62.76-.42.51-.64.76-.41.52-.64.76l-1.35,1.47c-.46.49-.95.95-1.43,1.42s-1,.92-1.49,1.37l-.77.68c-.25.22-.53.42-.8.63l-.81.64c-.27.21-.54.42-.83.61-.56.4-1.13.79-1.71,1.19L458.77,54c-.29.19-.61.35-.92.52l-.93.51A67.16,67.16,0,0,1,449,58.52c-.69.27-1.4.49-2.1.75l-1.05.36-1.07.35-2.15.68-2.17.65c-.72.22-1.46.43-2.19.63l-2.21.61-2.2.55-1.1.27c-.37.09-.74.16-1.11.23l-2.24.46c-.75.15-1.5.26-2.25.38-1.5.28-3,.44-4.55.65-.75.1-1.52.16-2.28.24s-1.53.17-2.3.21c-1.53.11-3.06.23-4.6.29-3.07.16-6.15.19-9.21.21s-6.12-.05-9.16-.13-6-.17-9-.26-6-.16-8.86-.22c-5.8-.15-11.47-.37-16.92-.31-2.72,0-5.39.15-8,.34s-5.11.51-7.54.91a52.64,52.64,0,0,0-13.13,4,29.91,29.91,0,0,0-5.23,3.09,14.52,14.52,0,0,0-3.75,4,8.68,8.68,0,0,0-1,2.32,8.13,8.13,0,0,0-.23,2.32c0,.19,0,.37.05.56a4.89,4.89,0,0,0,.09.53,5.53,5.53,0,0,0,.25,1,8.1,8.1,0,0,0,.84,1.75,6.81,6.81,0,0,0,2.3,2.25,3.93,3.93,0,0,0,2.3.57,3.31,3.31,0,0,0,1.38-.44,1.38,1.38,0,0,0,.31-.2L329,88a2.66,2.66,0,0,0-.45.2,3.72,3.72,0,0,1-1.35.31,3.78,3.78,0,0,1-2.12-.64A6.57,6.57,0,0,1,323,85.69a7.14,7.14,0,0,1-.73-1.66,5.5,5.5,0,0,1-.2-1,4,4,0,0,1-.06-.5l0-.51a7.45,7.45,0,0,1,.28-2.12,8,8,0,0,1,1-2.1,13.91,13.91,0,0,1,3.65-3.65A29.5,29.5,0,0,1,332,71.36a51.46,51.46,0,0,1,12.92-3.59c2.39-.34,4.86-.6,7.42-.73s5.19-.19,7.88-.15c5.39,0,11,.39,16.85.65,2.92.13,5.85.26,8.83.41s6,.3,9.05.43,6.12.23,9.22.3,6.21.06,9.34-.05c1.56,0,3.13-.13,4.7-.21.78,0,1.56-.11,2.35-.17s1.57-.11,2.35-.21c1.56-.18,3.13-.33,4.68-.58.78-.12,1.56-.22,2.33-.36l2.33-.43,1.15-.22,1.15-.27,2.3-.53,2.24-.59c.75-.19,1.49-.39,2.24-.6l2.22-.62,2.21-.67,1.1-.33,1.1-.37c.73-.25,1.46-.47,2.18-.74a68,68,0,0,0,8.42-3.58l1-.53c.33-.17.67-.34,1-.54l1.95-1.16,1.87-1.25a10.06,10.06,0,0,0,.91-.66l.89-.67c.29-.23.6-.44.88-.69l.84-.71c.56-.48,1.13-.95,1.64-1.47s1.06-1,1.56-1.51l1.47-1.57c.25-.26.48-.53.71-.8s.45-.54.68-.8l.68-.81c.22-.26.43-.54.64-.82l1.26-1.63c.21-.28.41-.58.61-.86s.41-.58.59-.88l.56-.88c.18-.3.34-.61.51-.91.35-.59.64-1.22.95-1.83a30.39,30.39,0,0,0,2.95-11.34A25.42,25.42,0,0,0,479.86,12.23Z"/><path class="cls-1" d="M366.11,44.28a1.26,1.26,0,0,1,1,.42,2.78,2.78,0,0,1,.72,1.38,6.08,6.08,0,0,1-.94,4.63,10.15,10.15,0,0,1-2.82,2.77,19.27,19.27,0,0,1-4.28,2.2,29,29,0,0,1-3.84,1.15c-1,.22-1.69.31-1.77.16s.4-.62,1.17-1.32l2.9-2.57a26.6,26.6,0,0,0,2.84-2.94,17.32,17.32,0,0,0,1.51-2.2c.57-.91,1.13-1.65,1.66-2.36A2.84,2.84,0,0,1,366.11,44.28Z"/><path class="cls-1" d="M351.64,45.57c.54-.19,1.23.15,1.76,1.06a5.09,5.09,0,0,1,.27,3.93A8.66,8.66,0,0,1,352,53.41a16.43,16.43,0,0,1-2.95,2.71c-2.1,1.5-4,2.47-4.22,2.29s1.11-2,2.41-4a21.9,21.9,0,0,0,1.63-3,15.37,15.37,0,0,0,.73-2.1c.25-.86.54-1.58.81-2.26A2.35,2.35,0,0,1,351.64,45.57Z"/><path class="cls-1" d="M384.67,42.56a1.4,1.4,0,0,1,1.05.54,3,3,0,0,1,.41.66,2.85,2.85,0,0,1,.27.91,6.74,6.74,0,0,1-1.41,5,11.42,11.42,0,0,1-3.32,2.84,21.87,21.87,0,0,1-4.89,2.08,32.2,32.2,0,0,1-4.33,1c-1.14.17-1.89.21-2,0s.49-.66,1.4-1.37l3.4-2.6a29.24,29.24,0,0,0,3.37-3,18,18,0,0,0,1.83-2.3c.7-1,1.38-1.74,2-2.48A3.17,3.17,0,0,1,384.67,42.56Z"/><path class="cls-1" d="M274.8,42.79a31.57,31.57,0,0,1,3.25-8.1,38.9,38.9,0,0,1,2.26-3.55c.41-.55.85-1.08,1.27-1.62A19.43,19.43,0,0,1,282.91,28a36.49,36.49,0,0,1,5.89-5.22l1.57-1.08,1.63-1,.8-.47.84-.4,1.65-.8,1.7-.66.83-.32.86-.25,1.7-.5,1.71-.35.84-.18.85-.1,1.69-.18c.55-.05,1.1-.06,1.65-.08h1.62a33.94,33.94,0,0,1,6.16.72A26.49,26.49,0,0,1,320.45,19,16.57,16.57,0,0,1,325,22a11.2,11.2,0,0,1,2.77,4.24l.38,1.14c.08.37.17.74.23,1.11a16.68,16.68,0,0,1,.23,2.17,12,12,0,0,1-1.79,7.17,6.25,6.25,0,0,1-2.25,2,5.93,5.93,0,0,1-2.39.6,7.83,7.83,0,0,1-1.91-.16,4,4,0,1,1,.31-.18,8.27,8.27,0,0,0,1.57,0,5.41,5.41,0,0,0,2.15-.74,5.54,5.54,0,0,0,1.87-1.94,11.09,11.09,0,0,0,1.13-6.66,10.74,10.74,0,0,0-3.62-7.32,14.71,14.71,0,0,0-4.12-2.39,25.31,25.31,0,0,0-5.11-1.28,32.18,32.18,0,0,0-5.69-.3l-1.48.08c-.5.05-1,.09-1.49.16L304.3,20l-.75.13-.74.2-1.49.4-1.48.53-.74.27c-.25.1-.49.22-.73.33l-1.47.67-1.43.79-.72.4-.69.46-1.4.92-1.34,1A32.58,32.58,0,0,0,286.37,31a17.12,17.12,0,0,0-1.1,1.41c-.34.48-.7,1-1,1.46a32.64,32.64,0,0,0-1.8,3.16A27,27,0,0,0,280,44a23.71,23.71,0,0,0-.37,7.47,24.63,24.63,0,0,0,6.76,13.88,52.5,52.5,0,0,0,14,10.38,89.44,89.44,0,0,0,8.45,3.92c.73.29,1.47.59,2.21.85l2.23.76c.75.25,1.49.54,2.25.76l2.31.64a96,96,0,0,0,19.37,3.17c13.42.88,27.53-.52,41.85-3,3.59-.63,7.14-1.3,10.7-2l10.64-2.11,10.51-2,10.38-1.94c13.74-2.5,27.12-4.54,40-5.78l4.79-.48,4.74-.31c3.14-.19,6.24-.44,9.29-.54q9.17-.34,17.79-.18a197.61,197.61,0,0,1,31.85,3A112,112,0,0,1,555.08,78a72,72,0,0,1,9.59,5.09c1.44.84,2.71,1.82,4,2.67.61.46,1.18.93,1.75,1.37s1.14.87,1.64,1.34a55,55,0,0,1,5.19,5.06c.68.79,1.34,1.5,1.89,2.2l1.44,1.91a18,18,0,0,1,1.08,1.55c.3.45.54.83.74,1.14l.6.93-.67-.88c-.23-.28-.51-.64-.84-1.07a17.54,17.54,0,0,0-1.19-1.45l-1.58-1.77c-.59-.64-1.3-1.29-2-2a55.74,55.74,0,0,0-5.45-4.58c-.52-.42-1.1-.78-1.68-1.18s-1.18-.81-1.81-1.21c-1.28-.74-2.57-1.61-4-2.33a73.13,73.13,0,0,0-9.61-4.32,113.41,113.41,0,0,0-25-5.89c-1.16-.15-2.33-.29-3.52-.42a77.87,77.87,0,0,0-17.45,2.43,125.32,125.32,0,0,0-16,5.18c-5.64,2.2-11.56,4.88-17.77,7.84s-12.7,6.21-19.65,9.39c-1.75.78-3.57,1.5-5.38,2.26l-2.73,1.13-1.38.57-1.41.49-5.71,2-1.44.49c-.48.17-1,.29-1.46.43l-3,.82-3,.82-1.47.4c-.49.12-1,.22-1.49.32l-5.92,1.24-1.47.3-1.48.22-2.93.43-2.92.41-1.45.2-1.45.12-5.74.46-1.42.1-1.42,0-2.8.05-2.78,0c-.92,0-1.84,0-2.75,0l-5.38-.25c-.89-.06-1.77-.06-2.64-.16l-2.6-.28L376.1,111c-1.66-.23-3.29-.53-4.89-.8l-2.38-.4c-.79-.14-1.57-.25-2.34-.44l-4.51-1c-1.47-.35-2.93-.63-4.32-1.06l-4.1-1.18-2-.58-1-.28-.95-.32-7.15-2.48-6.24-2.53c-2-.75-3.72-1.61-5.35-2.36l-4.45-2.07c-5.24-2.7-8.1-4.25-8.1-4.25l8.6,3,4.65,1.47c1.69.53,3.52,1.16,5.53,1.67l6.38,1.77,7.22,1.69a171.09,171.09,0,0,0,35.9,4.06l5.13,0c.87,0,1.74,0,2.61-.1l2.64-.16,2.65-.16,1.34-.08,1.34-.15,5.42-.62,1.37-.15,1.37-.23,2.75-.46,2.77-.46,1.39-.23,1.38-.31,5.59-1.24c.47-.11.94-.2,1.41-.32l1.39-.39,2.8-.78,2.81-.77c.46-.13.94-.24,1.39-.39l1.37-.46L441,95.65l1.35-.44,1.32-.52,2.63-1c1.75-.69,3.48-1.32,5.2-2,6.87-2.88,13.53-5.86,20-8.5s12.75-5,18.76-6.79a122.26,122.26,0,0,1,13.27-3.26c-1.86,0-3.72,0-5.62.06q-8.44.21-17.43.89c-3,.2-6,.56-9.09.85l-4.63.46-4.68.61c-12.55,1.61-25.68,3.93-39.26,6.63l-20.75,4.24L391.44,89c-3.58.73-7.24,1.43-10.91,2.07C365.81,93.62,351,95,336.65,93.81A101.12,101.12,0,0,1,315.76,90l-2.5-.76c-.83-.28-1.63-.6-2.45-.9l-2.42-.91c-.8-.3-1.58-.64-2.36-1a91.56,91.56,0,0,1-9-4.51,58,58,0,0,1-15.43-12.32,33.8,33.8,0,0,1-5.27-8.26A27.7,27.7,0,0,1,273.94,52,29,29,0,0,1,274.8,42.79Z"/><path class="cls-1" d="M183.07,463.65l2.83,0c1.83,0,4.47,0,7.73.07,6.52.13,15.49.78,25.32.92,2.46.08,4.85,0,7.17,0s4.49-.18,6.61-.4a107.85,107.85,0,0,0,11.16-1.79c1.57-.33,3-.7,4.24-1s2.31-.65,3.18-.91l2.67-.91-2.51,1.32c-.82.4-1.85.83-3.05,1.35s-2.6,1-4.16,1.53a76.3,76.3,0,0,1-11.21,2.79,53.89,53.89,0,0,1-6.83.74c-2.36.09-4.81.21-7.31.13a209.19,209.19,0,0,1-25.4-2.35Z"/><path class="cls-1" d="M104.46,513.88a22.21,22.21,0,0,0,3.63,5,23.66,23.66,0,0,0,4.2,3.39,25.76,25.76,0,0,0,4.41,2.24l1.14.42.59.19.6.18c.4.13.8.21,1.2.3l.61.14.6.09a23.76,23.76,0,0,0,4.81.31,30.78,30.78,0,0,0,4.64-.49,35.44,35.44,0,0,0,8.54-2.77,34,34,0,0,0,3.81-2.07c.62-.37,1.2-.78,1.79-1.18.29-.2.57-.43.85-.63s.57-.43.83-.65l.81-.68c.26-.22.52-.46.78-.7l.38-.35.37-.36.73-.74.69-.76.34-.39.32-.4.64-.79.59-.83c.2-.27.38-.55.56-.84s.36-.56.53-.85c.32-.59.66-1.16.93-1.76a22.87,22.87,0,0,0,1.36-3.67l.21-.93.11-.47.07-.47c.05-.32.09-.63.14-.94s0-.63.07-.95l0-.47v-.46c0-.31,0-.62,0-.93s0-.62-.08-.92l-.05-.46c0-.15-.05-.3-.07-.45s-.11-.59-.16-.88-.16-.58-.23-.87l-.12-.43-.14-.41-.3-.83c-.11-.26-.23-.53-.35-.79s-.11-.26-.18-.39l-.2-.37c-.14-.25-.27-.5-.41-.74l-.45-.69c-.08-.12-.15-.24-.23-.35l-.25-.32-.5-.64-.53-.6-.27-.29-.28-.27-.57-.54c-.19-.17-.39-.32-.59-.49a12.86,12.86,0,0,0-1.21-.88,14.79,14.79,0,0,0-5.09-2.14,13.93,13.93,0,0,0-4.78-.18,13,13,0,0,0-3.81,1.12l-.4.18-.37.21-.7.4c-.44.3-.84.57-1.2.84l-.94.81-.29.3a5.45,5.45,0,1,0,2.75-.5l.36-.18.68-.28.35-.14c.12-.05.25-.08.37-.12a11.94,11.94,0,0,1,3.4-.65,12.49,12.49,0,0,1,4,.47,12.86,12.86,0,0,1,4.13,2.05c.32.26.66.5,1,.79.16.14.32.28.47.43l.44.47.22.23.21.25.41.51.38.55.19.27.18.29.34.59.3.61.16.31.12.32.26.65.21.68.11.34.07.35c.05.23.11.46.16.7l.1.72c0,.12,0,.24.05.36l0,.37c0,.25,0,.49,0,.74s0,.5,0,.75,0,.26,0,.38l0,.38-.08.76-.15.77-.07.38-.1.38-.2.77a22.6,22.6,0,0,1-8.08,11c-.24.2-.49.38-.75.56l-.76.55c-.53.34-1.06.7-1.61,1a32.35,32.35,0,0,1-11,4.15,27.1,27.1,0,0,1-4,.4,20.75,20.75,0,0,1-4-.28l-.5-.08-.49-.11c-.32-.08-.65-.14-1-.25l-.47-.14-.49-.16-1-.37a21.09,21.09,0,0,1-3.7-1.88,19.64,19.64,0,0,1-3.46-2.77,18.23,18.23,0,0,1-3-4,20,20,0,0,1-2-5.24c-.12-.47-.18-1-.27-1.46s-.12-1-.19-1.52a25.67,25.67,0,0,1,0-3.17,26.62,26.62,0,0,1,.37-3.27,29.45,29.45,0,0,1,.83-3.33,29.05,29.05,0,0,1,1.27-3.3c.27-.53.51-1.08.81-1.61.15-.27.29-.54.45-.8l.48-.78c.15-.27.33-.52.5-.78s.35-.51.53-.77l1.17-1.56c.2-.26.39-.53.6-.78l.63-.76.63-.76c.21-.26.42-.52.65-.76l1.34-1.47c.46-.49,1-.95,1.43-1.42s1-.93,1.49-1.37l.77-.68c.25-.23.53-.42.8-.64l.81-.63c.27-.21.54-.43.83-.62l1.71-1.18,1.79-1.09c.3-.2.61-.36.92-.53l.94-.5a64.74,64.74,0,0,1,7.94-3.52c.69-.27,1.4-.5,2.1-.75l1.05-.37,1.07-.34,2.15-.69,2.17-.64c.73-.22,1.46-.43,2.2-.63l2.2-.61,2.2-.55,1.1-.27c.37-.09.75-.16,1.12-.24l2.23-.45c.75-.15,1.5-.26,2.26-.39,1.5-.27,3-.44,4.54-.64.76-.1,1.53-.16,2.29-.24s1.52-.17,2.29-.21c1.53-.11,3.07-.23,4.6-.29,3.07-.16,6.15-.19,9.22-.21s6.12,0,9.15.13,6.05.17,9,.26,6,.15,8.85.22c5.81.15,11.48.37,16.93.3,2.72,0,5.39-.14,8-.33s5.11-.52,7.54-.91a52.3,52.3,0,0,0,13.14-4,29.79,29.79,0,0,0,5.22-3.08,14.27,14.27,0,0,0,3.75-4,8.48,8.48,0,0,0,1-2.31A8.13,8.13,0,0,0,263,444c0-.19,0-.38-.05-.56a4.85,4.85,0,0,0-.08-.53,8.44,8.44,0,0,0-.25-1,7.82,7.82,0,0,0-.85-1.74,6.72,6.72,0,0,0-2.3-2.25,3.92,3.92,0,0,0-2.29-.57,3.39,3.39,0,0,0-1.39.43,2.27,2.27,0,0,0-.31.21c-.07.05-.1.08-.09.08a2.86,2.86,0,0,0,.44-.2,3.52,3.52,0,0,1,3.47.33,6.59,6.59,0,0,1,2.08,2.22,7.36,7.36,0,0,1,.72,1.66,5.59,5.59,0,0,1,.2.94c0,.17.06.33.07.5l0,.52a7.52,7.52,0,0,1-.29,2.12,8,8,0,0,1-1,2.1,13.73,13.73,0,0,1-3.65,3.64,28.51,28.51,0,0,1-5.13,2.84,51.08,51.08,0,0,1-12.91,3.6c-2.39.33-4.87.6-7.42.73s-5.19.18-7.89.15c-5.39-.05-11-.39-16.85-.66-2.92-.12-5.85-.25-8.83-.4s-6-.3-9-.43-6.13-.24-9.22-.3-6.22-.07-9.35.05c-1.56,0-3.13.12-4.69.21-.79,0-1.57.11-2.35.17s-1.57.11-2.35.21c-1.57.18-3.13.32-4.69.58-.78.12-1.56.22-2.33.35l-2.32.44-1.16.22-1.15.27-2.29.53-2.25.58c-.74.2-1.49.39-2.23.61l-2.23.62-2.21.67-1.1.33-1.09.37c-.73.24-1.46.47-2.18.73a68.92,68.92,0,0,0-8.42,3.59l-1,.52c-.34.18-.68.35-1,.55l-2,1.16-1.87,1.25c-.32.2-.61.43-.91.66l-.89.67c-.29.23-.6.44-.88.68l-.84.72c-.56.48-1.12.95-1.64,1.47s-1.06,1-1.56,1.51l-1.47,1.57a10.54,10.54,0,0,0-.7.8l-.69.8c-.22.27-.45.54-.68.8s-.42.55-.64.82l-1.26,1.64c-.21.28-.41.58-.61.86s-.4.58-.58.88l-.56.88c-.18.3-.35.61-.52.91-.35.59-.64,1.22-.94,1.83a29.91,29.91,0,0,0-1.5,3.75,33.22,33.22,0,0,0-1,3.8,29.24,29.24,0,0,0-.46,3.79A25.26,25.26,0,0,0,104.46,513.88Z"/><path class="cls-1" d="M218.2,481.83a1.26,1.26,0,0,1-1-.42,2.78,2.78,0,0,1-.72-1.38,6.09,6.09,0,0,1,.95-4.63,10.24,10.24,0,0,1,2.81-2.78,19.23,19.23,0,0,1,4.28-2.19,29,29,0,0,1,3.84-1.15c1-.23,1.7-.31,1.77-.17s-.39.63-1.16,1.33L226.08,473a27.59,27.59,0,0,0-2.84,2.95,16.31,16.31,0,0,0-1.5,2.2c-.57.91-1.14,1.65-1.67,2.36A2.88,2.88,0,0,1,218.2,481.83Z"/><path class="cls-1" d="M232.67,480.54c-.53.18-1.23-.15-1.76-1.06a5.05,5.05,0,0,1-.26-3.93,8.51,8.51,0,0,1,1.64-2.85,16.16,16.16,0,0,1,3-2.71c2.1-1.5,4-2.47,4.21-2.3s-1.11,2-2.41,4a21.33,21.33,0,0,0-1.63,3,13.39,13.39,0,0,0-.72,2.1c-.26.85-.55,1.58-.82,2.26A2.38,2.38,0,0,1,232.67,480.54Z"/><path class="cls-1" d="M199.65,483.55a1.41,1.41,0,0,1-1.05-.54,3.41,3.41,0,0,1-.42-.66,2.85,2.85,0,0,1-.27-.91,6.74,6.74,0,0,1,1.41-5,11.28,11.28,0,0,1,3.32-2.84,21.49,21.49,0,0,1,4.9-2.08,31.77,31.77,0,0,1,4.32-1c1.15-.17,1.9-.21,2,0s-.49.66-1.39,1.37l-3.4,2.6a29.3,29.3,0,0,0-3.37,3,20,20,0,0,0-1.84,2.31c-.7,1-1.38,1.73-2,2.48A3.17,3.17,0,0,1,199.65,483.55Z"/><path class="cls-1" d="M309.52,483.31a31.66,31.66,0,0,1-3.26,8.11A37.33,37.33,0,0,1,304,495c-.42.56-.85,1.09-1.28,1.62a17.92,17.92,0,0,1-1.33,1.54,36.43,36.43,0,0,1-5.88,5.22l-1.58,1.08-1.62,1-.81.46-.83.41-1.66.8-1.69.66-.84.32-.86.25-1.69.5-1.71.35-.85.17-.85.1-1.68.19c-.56,0-1.11.05-1.66.08h-1.62a34.85,34.85,0,0,1-6.16-.72,26.68,26.68,0,0,1-5.55-1.78,16.68,16.68,0,0,1-4.54-3.08,11,11,0,0,1-2.76-4.24c-.13-.38-.26-.76-.38-1.13s-.17-.75-.24-1.12a18.18,18.18,0,0,1-.22-2.16,11.9,11.9,0,0,1,1.79-7.17,6.14,6.14,0,0,1,2.24-2,6.21,6.21,0,0,1,2.39-.61,9.06,9.06,0,0,1,1.92.16,4,4,0,0,1,1.88-.47,4,4,0,1,1-2.2.66,8.27,8.27,0,0,0-1.57,0,5.6,5.6,0,0,0-2.15.73,5.55,5.55,0,0,0-1.86,1.95,11,11,0,0,0-1.13,6.66,10.71,10.71,0,0,0,3.61,7.32,14.85,14.85,0,0,0,4.12,2.39,25.24,25.24,0,0,0,5.12,1.28,32.12,32.12,0,0,0,5.69.3l1.48-.08c.49-.06,1-.09,1.48-.16l1.48-.26.75-.13.74-.2,1.49-.4,1.48-.53.75-.27.72-.33,1.47-.67,1.43-.79.72-.4.7-.46,1.39-.92,1.34-1a32.13,32.13,0,0,0,4.95-4.88,13.67,13.67,0,0,0,1.1-1.41c.34-.49.7-1,1-1.46a32.56,32.56,0,0,0,1.79-3.16,26.66,26.66,0,0,0,2.42-6.95,23.41,23.41,0,0,0,.37-7.47,24.63,24.63,0,0,0-6.76-13.88,52.29,52.29,0,0,0-14-10.38,89.25,89.25,0,0,0-8.44-3.92c-.73-.29-1.47-.59-2.21-.85l-2.24-.77c-.75-.25-1.49-.53-2.25-.76l-2.3-.64a97,97,0,0,0-19.38-3.16c-13.42-.88-27.53.52-41.85,3-3.59.63-7.13,1.3-10.7,2l-10.64,2.1-10.51,2.06L163,451.4c-13.75,2.5-27.13,4.54-40,5.78l-4.78.47-4.75.32c-3.14.18-6.24.44-9.29.53q-9.15.36-17.79.19a197.37,197.37,0,0,1-31.84-3,111.91,111.91,0,0,1-25.33-7.58A73.79,73.79,0,0,1,19.64,443c-1.44-.85-2.71-1.82-4-2.68-.61-.45-1.19-.92-1.76-1.36s-1.13-.87-1.63-1.34a54,54,0,0,1-5.2-5.06c-.68-.8-1.33-1.51-1.88-2.2l-1.45-1.91c-.44-.56-.78-1.1-1.08-1.55l-.74-1.14-.6-.93.68.87.83,1.08c.33.42.71.92,1.19,1.44L5.62,430c.6.64,1.3,1.29,2,2a58.46,58.46,0,0,0,5.45,4.58c.52.42,1.11.78,1.69,1.18s1.18.81,1.8,1.21c1.28.74,2.58,1.6,4,2.33a72,72,0,0,0,9.62,4.31,112.73,112.73,0,0,0,25,5.9c1.16.15,2.33.29,3.52.41a77.64,77.64,0,0,0,17.45-2.42,125.32,125.32,0,0,0,16-5.18c5.64-2.2,11.57-4.88,17.77-7.84s12.7-6.22,19.66-9.39c1.74-.78,3.56-1.5,5.37-2.27l2.73-1.13,1.38-.56,1.41-.49,5.71-2,1.44-.5c.48-.16,1-.28,1.47-.42l3-.82,3-.82,1.47-.4,1.49-.33,5.92-1.23,1.47-.31,1.48-.21,2.94-.43,2.91-.41,1.45-.21,1.45-.11,5.75-.46,1.41-.11,1.42,0,2.81,0,2.77,0c.92,0,1.84,0,2.75,0l5.39.25c.88.06,1.76.06,2.63.16l2.6.27,5.08.56c1.66.23,3.28.53,4.89.79l2.38.41c.79.14,1.57.25,2.33.44l4.51,1c1.47.35,2.93.63,4.32,1.06l4.1,1.18,2,.57,1,.29.94.32,7.15,2.48,6.25,2.52c2,.76,3.71,1.62,5.35,2.37l4.44,2.07c5.25,2.7,8.1,4.24,8.1,4.24l-8.6-3-4.64-1.47c-1.7-.53-3.52-1.16-5.53-1.68l-6.39-1.77-7.22-1.68a170.93,170.93,0,0,0-35.9-4.06l-5.13,0c-.87,0-1.74.05-2.61.1l-2.63.16-2.66.16-1.34.08-1.34.15-5.42.62-1.37.15-1.36.23-2.75.46-2.77.46-1.39.23-1.39.31-5.58,1.24-1.41.31-1.4.4-2.8.77-2.81.78c-.46.13-.93.24-1.39.39l-1.37.46-5.44,1.81-1.35.44-1.32.51-2.63,1c-1.74.69-3.48,1.32-5.2,2-6.86,2.88-13.53,5.86-20,8.5s-12.74,5-18.76,6.79A122.11,122.11,0,0,1,80.78,453c1.85,0,3.72,0,5.62-.06q8.43-.21,17.43-.89c3-.2,6-.56,9.08-.85l4.63-.46,4.68-.61c12.56-1.61,25.68-3.93,39.27-6.64l20.74-4.24,10.64-2.17c3.58-.73,7.24-1.43,10.92-2.07,14.71-2.54,29.51-3.92,43.87-2.74a101,101,0,0,1,20.89,3.86l2.5.76c.83.27,1.64.6,2.45.9l2.43.9c.8.31,1.57.65,2.35,1a90.48,90.48,0,0,1,9,4.51,57.66,57.66,0,0,1,15.43,12.32,34.14,34.14,0,0,1,5.28,8.26,27.92,27.92,0,0,1,2.35,9.36A28.62,28.62,0,0,1,309.52,483.31Z"/><path class="cls-1" d="M401.24,463.65l-2.83,0c-1.83,0-4.47,0-7.73.07-6.52.13-15.49.78-25.32.92-2.46.08-4.85,0-7.17,0s-4.49-.18-6.6-.4a107.4,107.4,0,0,1-11.16-1.79c-1.58-.33-3-.7-4.25-1s-2.31-.65-3.17-.91l-2.68-.91,2.51,1.32c.83.4,1.86.83,3.05,1.35s2.6,1,4.16,1.53a77,77,0,0,0,11.21,2.79,54.09,54.09,0,0,0,6.83.74c2.36.09,4.81.21,7.31.13a208.79,208.79,0,0,0,25.4-2.35Z"/><path class="cls-1" d="M479.86,513.88a22.25,22.25,0,0,1-3.64,5,23.66,23.66,0,0,1-4.2,3.39,25.76,25.76,0,0,1-4.41,2.24l-1.14.42-.59.19-.6.18c-.39.13-.8.21-1.2.3l-.6.14-.61.09a23.71,23.71,0,0,1-4.81.31,30.92,30.92,0,0,1-4.64-.49,35.37,35.37,0,0,1-8.53-2.77,33.32,33.32,0,0,1-3.82-2.07c-.62-.37-1.2-.78-1.78-1.18-.3-.2-.57-.43-.86-.63l-.83-.65-.81-.68c-.26-.22-.52-.46-.77-.7l-.39-.35-.37-.36-.73-.74-.69-.76-.34-.39-.32-.4-.63-.79-.6-.83c-.2-.27-.38-.55-.56-.84s-.36-.56-.53-.85c-.31-.59-.66-1.16-.92-1.76a21.11,21.11,0,0,1-1.36-3.67c-.07-.31-.15-.62-.22-.93l-.1-.47-.08-.47c0-.32-.09-.63-.13-.94s-.05-.63-.07-.95l0-.47c0-.15,0-.31,0-.46,0-.31,0-.62,0-.93s.06-.62.09-.92l0-.46c0-.15.05-.3.08-.45s.1-.59.16-.88.15-.58.22-.87l.12-.43.15-.41c.09-.28.19-.55.29-.83s.24-.53.35-.79l.18-.39.2-.37c.14-.25.27-.5.41-.74l.46-.69c.07-.12.15-.24.23-.35l.25-.32c.16-.22.33-.43.49-.64l.54-.6.26-.29.29-.27.56-.54c.19-.17.4-.32.59-.49.39-.33.81-.6,1.21-.88a14.87,14.87,0,0,1,5.09-2.14,13.94,13.94,0,0,1,4.78-.18,13,13,0,0,1,3.81,1.12l.4.18.37.21.71.4c.43.3.83.57,1.19.84l.94.81.29.3A5.46,5.46,0,1,1,450,488l-.37-.18-.67-.28-.35-.14-.38-.12a11.94,11.94,0,0,0-3.39-.65,12.43,12.43,0,0,0-4,.47,12.9,12.9,0,0,0-4.14,2.05c-.32.26-.66.5-1,.79l-.46.43-.45.47-.22.23-.2.25-.42.51-.38.55-.19.27c-.06.1-.11.2-.17.29l-.35.59-.3.61-.15.31c0,.11-.09.22-.13.32l-.26.65-.21.68-.1.34-.08.35-.15.7-.1.72c0,.12,0,.24-.05.36l0,.37c0,.25,0,.49,0,.74s0,.5,0,.75,0,.26,0,.38l0,.38.08.76c0,.26.09.51.14.77l.07.38.1.38.2.77a22.73,22.73,0,0,0,8.08,11c.24.2.5.38.75.56l.77.55c.53.34,1.05.7,1.6,1a31.13,31.13,0,0,0,3.44,1.8,31.88,31.88,0,0,0,7.59,2.35,27,27,0,0,0,4,.4,20.75,20.75,0,0,0,4-.28l.49-.08.49-.11a9.83,9.83,0,0,0,1-.25l.48-.14.48-.16,1-.37a21.54,21.54,0,0,0,3.71-1.88,20,20,0,0,0,3.45-2.77,18.26,18.26,0,0,0,3-4,20,20,0,0,0,2-5.24c.12-.47.19-1,.28-1.46s.12-1,.18-1.52a25.67,25.67,0,0,0,0-3.17,26.62,26.62,0,0,0-.37-3.27,28.32,28.32,0,0,0-2.1-6.63c-.26-.53-.51-1.08-.81-1.61-.15-.27-.29-.54-.44-.8l-.48-.78c-.16-.27-.33-.52-.51-.78s-.34-.51-.53-.77l-1.17-1.56c-.2-.26-.39-.53-.6-.78l-.62-.76c-.21-.25-.42-.51-.64-.76s-.41-.52-.64-.76l-1.35-1.47c-.46-.49-.95-.95-1.43-1.42s-1-.93-1.49-1.37l-.77-.68c-.25-.23-.53-.42-.8-.64l-.81-.63c-.27-.21-.54-.43-.83-.62l-1.71-1.18-1.79-1.09a10.45,10.45,0,0,0-.92-.53l-.93-.5a65.57,65.57,0,0,0-7.95-3.52c-.69-.27-1.4-.5-2.1-.75l-1.05-.37-1.07-.34-2.15-.69-2.17-.64c-.72-.22-1.46-.43-2.19-.63l-2.21-.61-2.2-.55-1.1-.27c-.37-.09-.74-.16-1.11-.24l-2.24-.45c-.75-.15-1.5-.26-2.25-.39-1.5-.27-3-.44-4.55-.64-.75-.1-1.52-.16-2.28-.24s-1.53-.17-2.3-.21c-1.53-.11-3.06-.23-4.6-.29-3.07-.16-6.15-.19-9.21-.21s-6.12,0-9.16.13-6,.17-9,.26-6,.15-8.86.22c-5.8.15-11.47.37-16.92.3-2.72,0-5.39-.14-8-.33s-5.11-.52-7.54-.91a52.23,52.23,0,0,1-13.13-4,29.88,29.88,0,0,1-5.23-3.08,14.42,14.42,0,0,1-3.75-4,8.48,8.48,0,0,1-1-2.31,8.13,8.13,0,0,1-.23-2.32c0-.19,0-.38.05-.56a4.89,4.89,0,0,1,.09-.53,5.84,5.84,0,0,1,.25-1,8.25,8.25,0,0,1,.84-1.74,6.81,6.81,0,0,1,2.3-2.25,3.93,3.93,0,0,1,2.3-.57,3.33,3.33,0,0,1,1.38.43,1.77,1.77,0,0,1,.31.21l.1.08a2.66,2.66,0,0,1-.45-.2,3.72,3.72,0,0,0-1.35-.31,3.78,3.78,0,0,0-2.12.64,6.48,6.48,0,0,0-2.07,2.22,7,7,0,0,0-.73,1.66,5.59,5.59,0,0,0-.2.94,4.26,4.26,0,0,0-.06.5l0,.52a7.5,7.5,0,0,0,.28,2.12,8,8,0,0,0,1,2.1,13.88,13.88,0,0,0,3.65,3.64,28.86,28.86,0,0,0,5.13,2.84,51,51,0,0,0,12.92,3.6c2.39.33,4.86.6,7.42.73s5.19.18,7.88.15c5.39-.05,11-.39,16.85-.66,2.92-.12,5.85-.25,8.83-.4s6-.3,9.05-.43,6.12-.24,9.22-.3,6.21-.07,9.34.05c1.56,0,3.13.12,4.7.21.78,0,1.56.11,2.35.17s1.57.11,2.35.21c1.56.18,3.13.32,4.68.58.78.12,1.56.22,2.33.35l2.33.44,1.15.22,1.15.27,2.3.53,2.24.58c.75.2,1.49.39,2.24.61l2.22.62,2.21.67,1.1.33,1.1.37c.73.24,1.46.47,2.18.73a69.59,69.59,0,0,1,8.42,3.59l1,.52c.33.18.67.35,1,.55l1.95,1.16,1.87,1.25a10.06,10.06,0,0,1,.91.66l.89.67c.29.23.6.44.88.68l.84.72c.56.48,1.13.95,1.64,1.47s1.06,1,1.56,1.51l1.47,1.57c.25.25.48.53.71.8l.68.8c.23.27.45.54.68.8s.43.55.64.82l1.26,1.64c.21.28.41.58.61.86s.41.58.59.88l.56.88c.18.3.34.61.51.91.35.59.64,1.22.95,1.83a32.3,32.3,0,0,1,2.48,7.55,31.13,31.13,0,0,1,.47,3.79A25.44,25.44,0,0,1,479.86,513.88Z"/><path class="cls-1" d="M366.11,481.83a1.26,1.26,0,0,0,1-.42,2.78,2.78,0,0,0,.72-1.38,6.08,6.08,0,0,0-.94-4.63,10.3,10.3,0,0,0-2.82-2.78,19.23,19.23,0,0,0-4.28-2.19,29,29,0,0,0-3.84-1.15c-1-.23-1.69-.31-1.77-.17s.4.63,1.17,1.33l2.9,2.56a26.64,26.64,0,0,1,2.84,2.95,16.62,16.62,0,0,1,1.51,2.2c.57.91,1.13,1.65,1.66,2.36A2.88,2.88,0,0,0,366.11,481.83Z"/><path class="cls-1" d="M351.64,480.54c.54.18,1.23-.15,1.76-1.06a5.09,5.09,0,0,0,.27-3.93A8.56,8.56,0,0,0,352,472.7a16.43,16.43,0,0,0-2.95-2.71c-2.1-1.5-4-2.47-4.22-2.3s1.11,2,2.41,4a21.33,21.33,0,0,1,1.63,3,14.92,14.92,0,0,1,.73,2.1c.25.85.54,1.58.81,2.26A2.38,2.38,0,0,0,351.64,480.54Z"/><path class="cls-1" d="M384.67,483.55a1.43,1.43,0,0,0,1.05-.54,3,3,0,0,0,.41-.66,2.85,2.85,0,0,0,.27-.91,6.74,6.74,0,0,0-1.41-5,11.28,11.28,0,0,0-3.32-2.84,21.41,21.41,0,0,0-4.89-2.08,32.2,32.2,0,0,0-4.33-1c-1.14-.17-1.89-.21-2,0s.49.66,1.4,1.37l3.4,2.6a30.17,30.17,0,0,1,3.37,3,18.59,18.59,0,0,1,1.83,2.31c.7,1,1.38,1.73,2,2.48A3.17,3.17,0,0,0,384.67,483.55Z"/><path class="cls-1" d="M274.8,483.31a31.64,31.64,0,0,0,3.25,8.11,37.41,37.41,0,0,0,2.26,3.54c.41.56.85,1.09,1.27,1.62a17.92,17.92,0,0,0,1.33,1.54,36.49,36.49,0,0,0,5.89,5.22l1.57,1.08,1.63,1,.8.46.84.41,1.65.8,1.7.66.83.32.86.25,1.7.5,1.71.35.84.17.85.1,1.69.19c.55,0,1.1.05,1.65.08h1.62a34.85,34.85,0,0,0,6.16-.72,26.49,26.49,0,0,0,5.55-1.78,16.38,16.38,0,0,0,4.54-3.08,11.05,11.05,0,0,0,2.77-4.24c.13-.38.25-.76.38-1.13s.17-.75.23-1.12a16.35,16.35,0,0,0,.23-2.16,12,12,0,0,0-1.79-7.17,6.25,6.25,0,0,0-2.25-2,6.12,6.12,0,0,0-2.39-.61,9,9,0,0,0-1.91.16,4.15,4.15,0,1,0,.31.19,8.27,8.27,0,0,1,1.57,0,5.55,5.55,0,0,1,2.15.73,5.66,5.66,0,0,1,1.87,1.95,11.09,11.09,0,0,1,1.13,6.66,10.76,10.76,0,0,1-3.62,7.32,14.71,14.71,0,0,1-4.12,2.39,25.31,25.31,0,0,1-5.11,1.28,32.18,32.18,0,0,1-5.69.3l-1.48-.08c-.5-.06-1-.09-1.49-.16l-1.48-.26-.75-.13-.74-.2-1.49-.4-1.48-.53-.74-.27c-.25-.1-.49-.22-.73-.33l-1.47-.67-1.43-.79-.72-.4-.69-.46-1.4-.92-1.34-1a32.58,32.58,0,0,1-4.95-4.88,17.12,17.12,0,0,1-1.1-1.41c-.34-.49-.7-1-1-1.46a32.64,32.64,0,0,1-1.8-3.16,26.64,26.64,0,0,1-2.41-6.95,23.42,23.42,0,0,1-.38-7.47,24.63,24.63,0,0,1,6.76-13.88,52.29,52.29,0,0,1,14-10.38,89.44,89.44,0,0,1,8.45-3.92c.73-.29,1.47-.59,2.21-.85l2.23-.77c.75-.25,1.49-.53,2.25-.76l2.31-.64a96.73,96.73,0,0,1,19.37-3.16c13.42-.88,27.53.52,41.85,3,3.59.63,7.14,1.3,10.7,2l10.64,2.1L411,449.46l10.38,1.94c13.74,2.5,27.12,4.54,40,5.78l4.79.47,4.74.32c3.14.18,6.24.44,9.29.53q9.17.36,17.79.19a197.61,197.61,0,0,0,31.85-3,112,112,0,0,0,25.32-7.58,73.15,73.15,0,0,0,9.59-5.09c1.44-.85,2.71-1.82,4-2.68.61-.45,1.18-.92,1.75-1.36s1.14-.87,1.64-1.34a55,55,0,0,0,5.19-5.06c.68-.8,1.34-1.51,1.89-2.2l1.44-1.91c.45-.56.78-1.1,1.08-1.55s.54-.84.74-1.14l.6-.93-.67.87-.84,1.08c-.33.42-.7.92-1.19,1.44L578.69,430c-.59.64-1.3,1.29-2,2a57.18,57.18,0,0,1-5.45,4.58c-.52.42-1.1.78-1.68,1.18s-1.18.81-1.81,1.21c-1.28.74-2.57,1.6-4,2.33a71.85,71.85,0,0,1-9.61,4.31,112.83,112.83,0,0,1-25,5.9c-1.16.15-2.33.29-3.52.41a77.79,77.79,0,0,1-17.45-2.42,125.32,125.32,0,0,1-16-5.18c-5.64-2.2-11.56-4.88-17.77-7.84s-12.7-6.22-19.65-9.39c-1.75-.78-3.57-1.5-5.38-2.27l-2.73-1.13-1.38-.56-1.41-.49-5.71-2-1.44-.5c-.48-.16-1-.28-1.46-.42l-3-.82-3-.82-1.47-.4c-.49-.12-1-.22-1.49-.33l-5.92-1.23-1.47-.31-1.48-.21-2.93-.43-2.92-.41-1.45-.21-1.45-.11L403,414l-1.42-.11-1.42,0-2.8,0-2.78,0c-.92,0-1.84,0-2.75,0l-5.38.25c-.89.06-1.77.06-2.64.16l-2.6.27-5.07.56c-1.66.23-3.29.53-4.89.79l-2.38.41c-.79.14-1.57.25-2.34.44l-4.51,1c-1.47.35-2.93.63-4.32,1.06l-4.1,1.18-2,.57-1,.29-.95.32-7.15,2.48-6.24,2.52c-2,.76-3.72,1.62-5.35,2.37l-4.45,2.07c-5.24,2.7-8.1,4.24-8.1,4.24l8.6-3,4.65-1.47c1.69-.53,3.52-1.16,5.53-1.68l6.38-1.77,7.22-1.68a171.09,171.09,0,0,1,35.9-4.06l5.13,0c.87,0,1.74.05,2.61.1l2.64.16,2.65.16,1.34.08,1.34.15,5.42.62,1.37.15,1.37.23,2.75.46,2.77.46,1.39.23,1.38.31,5.59,1.24,1.41.31,1.39.4,2.8.77,2.81.78c.46.13.94.24,1.39.39l1.37.46,5.44,1.81,1.35.44,1.32.51,2.63,1c1.75.69,3.48,1.32,5.2,2,6.87,2.88,13.53,5.86,20,8.5s12.75,5,18.76,6.79A122.26,122.26,0,0,0,503.54,453c-1.86,0-3.72,0-5.62-.06q-8.44-.21-17.43-.89c-3-.2-6-.56-9.09-.85l-4.63-.46-4.68-.61c-12.55-1.61-25.68-3.93-39.26-6.64l-20.75-4.24-10.64-2.17c-3.58-.73-7.24-1.43-10.91-2.07-14.72-2.54-29.52-3.92-43.88-2.74a101.13,101.13,0,0,0-20.89,3.86l-2.5.76c-.83.27-1.63.6-2.45.9l-2.42.9c-.8.31-1.58.65-2.36,1a91.56,91.56,0,0,0-9,4.51,57.81,57.81,0,0,0-15.43,12.32,33.8,33.8,0,0,0-5.27,8.26,27.7,27.7,0,0,0-2.36,9.36A28.91,28.91,0,0,0,274.8,483.31Z"/><path class="cls-1" d="M21.2,241.72a1.6,1.6,0,0,0-1.11-.9,3.41,3.41,0,0,0-2.22.28,5.66,5.66,0,0,0-2.5,2.35,7.13,7.13,0,0,0-.93,4.08,8.14,8.14,0,0,0,.61,2.62A10.39,10.39,0,0,0,16.81,253a11.92,11.92,0,0,0,2.74,2.36,13.34,13.34,0,0,0,3.21,1.46,15.43,15.43,0,0,0,3.1.54c.47,0,.93,0,1.35,0s.82-.05,1.17-.09l1-.17a5.17,5.17,0,0,0,.71-.21c.39-.13.6-.26.61-.37s-.21-.22-.58-.37l-1.49-.6-1-.42-1-.52a15.87,15.87,0,0,1-2.09-1.36,11.35,11.35,0,0,1-1.72-1.75,8.2,8.2,0,0,1-1.1-1.84,6.2,6.2,0,0,1-.44-1.57,1.76,1.76,0,0,1,0-.31c0-.1,0-.19,0-.27a1.79,1.79,0,0,0,0-.24.67.67,0,0,0,0-.2c0-.48-.06-.87-.07-1.26a7.16,7.16,0,0,1,0-1.29C21.21,243.64,21.57,242.58,21.2,241.72Z"/><path class="cls-1" d="M13.34,256.23c5.9,2.63,14.18,3.38,15.27,3.47.07,0,.12,0,.12.09l2.87,2.56a.84.84,0,0,1,0,1.26l-2.89,2.53c0,.05-.05.09-.12.09a54.41,54.41,0,0,0-15.31,3.3s-9.41-5.29-11.37-6.48a.26.26,0,0,1,0-.47C3.87,261.41,13.29,256.2,13.34,256.23Z"/><path class="cls-1" d="M21,284.46a1.62,1.62,0,0,1-1.13.89,3.45,3.45,0,0,1-2.22-.31,5.69,5.69,0,0,1-2.47-2.38,7.24,7.24,0,0,1-.89-4.09,8.55,8.55,0,0,1,.65-2.61,10.19,10.19,0,0,1,1.79-2.87,12,12,0,0,1,2.77-2.33,13.25,13.25,0,0,1,3.22-1.42,15.38,15.38,0,0,1,3.1-.51h1.36c.42,0,.81.06,1.17.11l.95.18a5.06,5.06,0,0,1,.71.22c.39.14.6.26.6.37s-.21.22-.58.37l-1.49.58-1,.41c-.33.15-.69.32-1,.5a16.36,16.36,0,0,0-2.11,1.35,10.91,10.91,0,0,0-1.74,1.72,8.28,8.28,0,0,0-1.12,1.83,6,6,0,0,0-.46,1.56,1.87,1.87,0,0,0,0,.32,1.24,1.24,0,0,0,0,.27,1.94,1.94,0,0,1,0,.24,1.15,1.15,0,0,1,0,.19c0,.49-.06.88-.08,1.27a6.93,6.93,0,0,0,0,1.28C21,282.54,21.35,283.6,21,284.46Z"/><path class="cls-1" d="M60.88,263.14l-6.68,3.11,0,0a37,37,0,0,0-6.38-3l-.42-.12.42-.12a36.49,36.49,0,0,0,6.42-3l0,0Z"/><path class="cls-1" d="M35.19,92a11.48,11.48,0,0,0-2.72-.61,14.07,14.07,0,0,0-3.36,0,16,16,0,0,0-7.42,3.22A31.05,31.05,0,0,0,14.9,102a57.58,57.58,0,0,0-5.36,9.77,67.49,67.49,0,0,0-3.67,10.93A79.11,79.11,0,0,0,4,133.84a99.82,99.82,0,0,0,.19,19.59c.42,2.7,1,5.72,1.73,8.95S7.59,169,8.7,172.54a157.08,157.08,0,0,0,8.6,21.38c1.7,3.47,3.5,6.84,5.34,10L24,206.27c.45.75.93,1.49,1.4,2.22l2.8,4.29c3.64,5.55,6.6,10.38,8.52,13.77a121.72,121.72,0,0,1,6.69,13.38A48.85,48.85,0,0,1,47,251.82a18.52,18.52,0,0,1,.08,4.91,11.57,11.57,0,0,1-.44,2,7.93,7.93,0,0,1-.74,1.6,5.29,5.29,0,0,1-1.64,1.77c-.47.28-.76.35-.83.25s.63-1,1.19-2.62.6-4.28-.16-7.47a59.68,59.68,0,0,0-4.07-11c-1.88-4-4.21-8.41-6.78-12.93-1.89-3.33-4.73-8.15-8.22-13.75l-2.7-4.38c-.46-.76-.93-1.53-1.39-2.35l-1.35-2.43c-1.78-3.28-3.51-6.77-5.12-10.36a151.12,151.12,0,0,1-7.92-22c-1-3.61-1.77-7.12-2.39-10.41s-1-6.37-1.32-9.11a96.77,96.77,0,0,1-1.08-19.87,79.52,79.52,0,0,1,1.49-11.53A68.84,68.84,0,0,1,7,110.7a59,59,0,0,1,5.32-10.45,39.68,39.68,0,0,1,3.38-4.52A28.38,28.38,0,0,1,19.61,92a19.18,19.18,0,0,1,9-4.08,17.37,17.37,0,0,1,4.23-.11,15.38,15.38,0,0,1,3.55.77,16.16,16.16,0,0,1,7,4.81,17,17,0,0,1,2.25,3.36A18.2,18.2,0,0,1,47,100.32a15.13,15.13,0,0,1,.47,3.7,11.94,11.94,0,0,1-.58,3.55A9.69,9.69,0,0,1,43,112.7a7.68,7.68,0,0,1-2.68,1.11,5.21,5.21,0,0,1-2.72-.14,3.67,3.67,0,0,1-2-1.56,4.25,4.25,0,0,1-.42-1l-.09-.46a1.6,1.6,0,0,1,0-.43,6,6,0,0,1,.1-1.42,7.46,7.46,0,0,1,.3-1c.23-.49.4-.72.52-.69s.19.32.21.82c0,.25,0,.55.06.9a7.26,7.26,0,0,0,.21,1.12,1.42,1.42,0,0,0,.1.29l.12.3a3,3,0,0,0,.36.5,1.81,1.81,0,0,0,1.09.6,4.39,4.39,0,0,0,3.33-1.12,7.23,7.23,0,0,0,2.47-3.9,9.36,9.36,0,0,0,.27-2.63,11.81,11.81,0,0,0-.51-2.85,15.5,15.5,0,0,0-1.19-2.88,14.27,14.27,0,0,0-1.86-2.63A13,13,0,0,0,35.19,92Z"/><path class="cls-1" d="M3.49,155.39s-.4,1.58-1.06,4.45c-.14.73-.3,1.53-.46,2.41s-.37,1.84-.49,2.89-.3,2.16-.46,3.34-.21,2.45-.33,3.77c0,.16,0,.33,0,.5l0,.5,0,1c0,.7,0,1.41-.07,2.14s0,1.47,0,2.22,0,1.53.06,2.32c0,.39,0,.79.07,1.18l.09,1.21c.07.81.13,1.63.22,2.47s.23,1.67.35,2.53l.18,1.29c.06.44.17.87.25,1.3.18.87.36,1.75.54,2.65.08.44.21.88.33,1.33L3,196.26l.36,1.36.19.68.23.68.92,2.73.24.69.27.67.56,1.37.57,1.37.28.69.33.68,1.33,2.72.34.68.37.66.76,1.34.76,1.34c.13.22.25.44.39.66l.42.63L13,217.74l.41.63.45.59.88,1.19c.59.78,1.16,1.58,1.76,2.33,2.39,3,4.77,5.73,7,8.38s4.22,5.2,6,7.66a62.71,62.71,0,0,1,4.48,7.12,37.34,37.34,0,0,1,4,11.47c.22,1.44.32,2.57.36,3.34l.05,1.18s0-.41.13-1.18a30.65,30.65,0,0,0,.11-3.4,31,31,0,0,0-.66-5.39c-.21-1-.5-2.15-.84-3.31s-.79-2.36-1.3-3.6a58.82,58.82,0,0,0-4-7.8c-1.61-2.69-3.52-5.45-5.59-8.27S21.87,223,19.63,220c-.55-.74-1.07-1.51-1.62-2.27l-.82-1.15-.41-.58-.38-.6c-.51-.8-1-1.6-1.54-2.41l-.39-.61c-.13-.21-.24-.42-.37-.63l-.71-1.27c-.25-.42-.49-.84-.73-1.26l-.36-.63L12,208c-.43-.86-.86-1.72-1.29-2.56l-.32-.64-.28-.64c-.19-.43-.38-.86-.56-1.29S9.15,202,9,201.56l-.28-.63-.25-.65-1-2.55-.24-.63-.2-.64c-.13-.43-.27-.85-.4-1.27s-.27-.84-.4-1.26-.27-.83-.37-1.25c-.22-.84-.44-1.67-.65-2.49a85,85,0,0,1-2.43-17.91c0-1.3,0-2.53-.07-3.71s0-2.28.08-3.31.08-2,.13-2.89l.14-2.44Z"/><path class="cls-1" d="M34.88,438.15a15.15,15.15,0,0,1-3.55.73,17.08,17.08,0,0,1-4.24-.16,19,19,0,0,1-8.94-4.18,29,29,0,0,1-3.87-3.81A40.74,40.74,0,0,1,11,426.17a59.34,59.34,0,0,1-5.2-10.5,68.93,68.93,0,0,1-3.27-11.51,79.11,79.11,0,0,1-1.36-11.54,97.22,97.22,0,0,1,1.3-19.85c.32-2.74.79-5.81,1.43-9.09s1.48-6.78,2.5-10.38a150.77,150.77,0,0,1,8.16-21.92c1.64-3.58,3.41-7,5.23-10.31l1.37-2.41c.47-.82.95-1.59,1.42-2.34L25.27,312c3.55-5.57,6.44-10.36,8.37-13.67,2.62-4.49,5-8.82,6.92-12.85a58.75,58.75,0,0,0,4.19-10.95c.8-3.18.81-5.82.24-7.46s-1.35-2.41-1.16-2.64.37,0,.84.26a5.6,5.6,0,0,1,1.62,1.79,8,8,0,0,1,.71,1.61,11.59,11.59,0,0,1,.43,2,18.7,18.7,0,0,1-.14,4.91,49.24,49.24,0,0,1-3.66,11.85,122.4,122.4,0,0,1-6.84,13.31c-2,3.36-5,8.16-8.67,13.67l-2.84,4.26c-.49.73-1,1.47-1.43,2.21l-1.41,2.32c-1.88,3.15-3.71,6.5-5.45,9.95a155.75,155.75,0,0,0-8.83,21.28C7,357.36,6.05,360.78,5.25,364s-1.38,6.23-1.83,8.92A100.53,100.53,0,0,0,3,392.5a78.92,78.92,0,0,0,1.76,11.17,68.46,68.46,0,0,0,3.54,11,57.1,57.1,0,0,0,5.25,9.83,31.36,31.36,0,0,0,6.7,7.4,15.88,15.88,0,0,0,7.39,3.31,13.57,13.57,0,0,0,3.35.08,11.61,11.61,0,0,0,2.73-.58A13,13,0,0,0,39.27,431a14.44,14.44,0,0,0,1.89-2.61,15.47,15.47,0,0,0,1.22-2.86,11.91,11.91,0,0,0,.54-2.85,9.42,9.42,0,0,0-.23-2.63,7.27,7.27,0,0,0-2.43-3.93A4.41,4.41,0,0,0,36.94,415a1.85,1.85,0,0,0-1.1.58,3,3,0,0,0-.36.5l-.12.29a1.15,1.15,0,0,0-.11.29A7.82,7.82,0,0,0,35,417.8c0,.34-.06.65-.07.9,0,.49-.09.78-.21.81s-.29-.2-.51-.69a5.87,5.87,0,0,1-.29-1,6.21,6.21,0,0,1-.09-1.43,2.18,2.18,0,0,1,0-.43l.09-.46a4.36,4.36,0,0,1,.44-1,3.65,3.65,0,0,1,2-1.53,5.22,5.22,0,0,1,2.72-.11,7.5,7.5,0,0,1,2.66,1.14,9.64,9.64,0,0,1,3.83,5.17,12,12,0,0,1,.53,3.56,14.59,14.59,0,0,1-.51,3.69,18.06,18.06,0,0,1-1.39,3.6,17,17,0,0,1-2.29,3.33A16.08,16.08,0,0,1,34.88,438.15Z"/><path class="cls-1" d="M2.74,370.94l-.37-4.55c0-.73-.07-1.54-.11-2.43s-.11-1.86-.11-2.89,0-2.15,0-3.32.07-2.41.1-3.71a85.35,85.35,0,0,1,2.64-17.88c.22-.82.44-1.64.67-2.48.1-.42.25-.83.39-1.25s.27-.83.41-1.25l.42-1.27.21-.63.24-.63,1-2.55.25-.64.29-.63.57-1.27c.19-.42.39-.85.58-1.28l.29-.64.33-.63c.43-.85.87-1.69,1.31-2.55l.33-.64.37-.62.74-1.26.73-1.26c.12-.2.24-.42.37-.62l.4-.6c.52-.81,1.05-1.61,1.57-2.41l.38-.59.42-.57.83-1.14c.56-.76,1.09-1.52,1.65-2.26,2.27-2.95,4.57-5.79,6.67-8.58s4-5.53,5.69-8.21A58.24,58.24,0,0,0,36,281.94c.53-1.23,1-2.44,1.34-3.58s.66-2.25.88-3.3a31.67,31.67,0,0,0,.72-5.38,29.91,29.91,0,0,0-.08-3.41l-.11-1.17s0,.4-.07,1.17a30.71,30.71,0,0,1-.4,3.34A37,37,0,0,1,34.13,281a64,64,0,0,1-4.55,7.07c-1.79,2.45-3.85,5-6.07,7.59S18.88,301,16.45,304c-.6.74-1.18,1.53-1.78,2.31l-.9,1.18-.45.59-.42.62-1.68,2.51-.42.63c-.14.21-.27.44-.4.66l-.77,1.32-.78,1.33-.38.66c-.12.23-.23.46-.35.68-.45.91-.91,1.81-1.36,2.71l-.33.67-.29.69c-.2.45-.39.91-.59,1.36L5,323.28,4.7,324l-.25.69c-.32.92-.63,1.82-1,2.72l-.23.67-.2.68c-.13.46-.25.91-.38,1.36s-.25.89-.38,1.33-.25.89-.34,1.33c-.19.89-.38,1.77-.56,2.64-.09.44-.2.87-.27,1.3S1,337.53.94,338c-.12.85-.25,1.7-.38,2.53S.4,342.14.32,343c0,.41-.07.81-.11,1.21s-.08.79-.08,1.18c0,.79-.06,1.56-.08,2.32s-.07,1.49,0,2.22,0,1.44,0,2.14l0,1c0,.17,0,.34,0,.5l0,.5c.1,1.32.19,2.58.28,3.78s.29,2.3.42,3.34.31,2,.46,2.89.3,1.69.43,2.42C2.36,369.36,2.74,370.94,2.74,370.94Z"/></g></svg>